<svg width="54" height="48" viewBox="0 0 54 48" fill="none" xmlns="http://www.w3.org/2000/svg">
<path fill-rule="evenodd" clip-rule="evenodd" d="M15.6021 32.5695C16.6601 33.1297 17.8665 33.3705 19.0665 33.2608C20.2665 33.1511 21.4053 32.696 22.3369 31.9539C23.2686 31.2117 23.9504 30.2164 24.295 29.0956C24.6397 27.9748 24.6313 26.7796 24.271 25.6634C23.8144 24.2401 23.6517 22.7435 23.7924 21.2591C23.933 19.7747 24.3741 18.3318 25.0906 17.0133C25.807 15.6947 26.7845 14.5263 27.9672 13.575C29.1498 12.6237 30.5143 11.9084 31.9824 11.4699C33.121 11.1238 34.1287 10.4586 34.8786 9.55804C35.6285 8.6575 36.0872 7.56181 36.1969 6.40885C36.3067 5.25588 36.0626 4.09716 35.4953 3.0786C34.928 2.05997 34.0629 1.22692 33.0089 0.684329C31.9548 0.141735 30.759 -0.0862561 29.5718 0.0291772C28.3846 0.144539 27.2591 0.598078 26.3368 1.3328C25.4146 2.06745 24.737 3.05043 24.3891 4.15797C24.0413 5.26551 24.0387 6.44816 24.3819 7.55707C25.2827 10.4199 24.9781 13.5125 23.5348 16.1579C22.0914 18.8033 19.6269 20.7861 16.6807 21.6724C15.5176 21.9997 14.4825 22.6582 13.7094 23.5628C12.9364 24.4675 12.4609 25.5765 12.3447 26.7462C12.2286 27.916 12.4769 29.0926 13.0577 30.1239C13.6385 31.1551 14.5248 31.9934 15.6021 32.5303V32.5695ZM52.7881 39.0842C52.3605 38.4238 51.8015 37.8526 51.1438 37.4041C50.4861 36.9557 49.7428 36.639 48.9576 36.4725C45.9531 35.7944 43.3473 33.9898 41.7097 31.4531C40.0721 28.9163 39.5359 25.8536 40.218 22.9344C40.4803 21.806 40.3932 20.6277 39.9676 19.5473C39.542 18.4668 38.797 17.5325 37.826 16.8617C36.855 16.1908 35.7014 15.8134 34.51 15.7767C33.3187 15.74 32.1428 16.0457 31.1299 16.6555C30.117 17.2653 29.3124 18.1518 28.817 19.2038C28.3217 20.256 28.1577 21.4265 28.3458 22.5687C28.5338 23.7109 29.0654 24.7737 29.8739 25.6237C30.6823 26.4736 31.7315 27.0729 32.8897 27.346C34.3881 27.674 35.8051 28.2857 37.0593 29.1461C38.3136 30.0065 39.3805 31.0987 40.199 32.36C41.0175 33.6214 41.5713 35.027 41.8289 36.4965C42.0865 37.9659 42.0426 39.4703 41.6999 40.9233C41.497 41.86 41.5331 42.8306 41.8053 43.7505C42.0775 44.6705 42.5775 45.5119 43.2616 46.2014C43.9457 46.8909 44.7931 47.4077 45.7301 47.7065C46.6671 48.0054 47.6652 48.0773 48.6374 47.9161C49.6097 47.7548 50.5265 47.3653 51.3081 46.7814C52.0897 46.1975 52.7121 45.437 53.1214 44.5662C53.5307 43.6953 53.7143 42.7405 53.6562 41.7851C53.5981 40.8296 53.3001 39.9023 52.7881 39.0842ZM28.8409 32.1485C29.5714 31.8209 30.3618 31.6381 31.1659 31.6107C32.1538 31.5863 33.1327 31.7973 34.0172 32.2249C34.9016 32.6527 35.6645 33.2841 36.2393 34.0641C36.8142 34.8442 37.1832 35.749 37.3143 36.6994C37.4454 37.6499 37.3345 38.617 36.9913 39.5162C36.6481 40.4155 36.0831 41.2195 35.3457 41.8578C34.6083 42.4961 33.721 42.9494 32.7613 43.178C31.8016 43.4065 30.7989 43.4034 29.8406 43.1689C28.8825 42.9344 27.9981 42.4757 27.2649 41.8328C26.1387 40.8181 24.8173 40.0291 23.3763 39.5107C21.9353 38.9924 20.403 38.7551 18.8674 38.8123C17.3317 38.8696 15.8228 39.2203 14.427 39.8443C13.0312 40.4684 11.7761 41.3535 10.7334 42.4491C10.0479 43.1384 9.19904 43.6543 8.26074 43.9519C7.32252 44.2496 6.32341 44.3198 5.35075 44.1566C4.37809 43.9933 3.46142 43.6016 2.68067 43.0155C1.89992 42.4293 1.27893 41.6666 0.87178 40.794C0.464627 39.9214 0.283827 38.9654 0.345007 38.0093C0.406261 37.0532 0.707644 36.1263 1.22301 35.3092C1.7383 34.4923 2.4518 33.8101 3.30136 33.3223C4.15085 32.8345 5.11055 32.5558 6.09654 32.5107C6.89759 32.4803 7.69686 32.6047 8.44784 32.8767C9.19889 33.1488 9.88669 33.563 10.4713 34.0953C12.7339 36.1273 15.7336 37.2073 18.8145 37.0991C21.8953 36.9909 24.8067 35.7035 26.9121 33.5182C27.4548 32.9416 28.1105 32.476 28.8409 32.1485Z" fill="#D90327"/>
</svg>
