<svg width="320" height="118" viewBox="0 0 320 118" fill="none" xmlns="http://www.w3.org/2000/svg">
<path d="M13.3333 56.6667C13.3333 97.0667 13.4667 100 15.7333 100C16.9333 99.8667 23.8667 98.8 30.9333 97.4667C50.4 94 54.6667 89.0667 54.6667 70C54.6667 58.9333 54.5333 58.2667 50.6667 54.4L46.6667 50.4L50 46.4C52.9333 42.9333 53.3333 41.2 53.3333 32.8C53.3333 16.6667 48.9333 13.3333 27.3333 13.3333H13.3333V56.6667ZM38.4 26.9333C39.3333 27.8667 40 31.4667 40 34.9333C40 42.2667 36.8 46.6667 31.3333 46.6667C28 46.6667 28 46.5333 28 36V25.3333H32.4C34.8 25.3333 37.4667 26 38.4 26.9333ZM39.2 60.8C40.6667 62.1333 41.3333 65.3333 41.3333 70.8C41.3333 80 38.5333 84 32 84H28V71.3333V58.6667H32.5333C35.0667 58.6667 38.1333 59.6 39.2 60.8Z" fill="#E50914"/>
<path d="M62.6667 53.4666V93.6L66.6667 92.9333C68.8 92.4 76.8 91.7333 84.6667 91.2L98.6667 90.2666V84.2666V78.2666L87.3334 78.9333L76 79.4666V68.6666V57.7333L81.0667 56.8C83.7334 56.4 88 56 90.4 56C94.5334 56 94.6667 55.7333 94.6667 50.6666V45.3333H85.3334H76V34.6666V24H87.3334H98.6667V18.6666V13.3333H80.6667H62.6667V53.4666Z" fill="#E50914"/>
<path d="M106.667 51.4666V89.6L121.067 88.6666C146.4 86.9333 147.2 85.8666 147.733 51.3333C148.133 23.3333 147.733 21.4666 140.133 16.4C136.133 13.7333 134 13.3333 121.2 13.3333H106.667V51.4666ZM132 25.3333C133.6 26.4 134 30.6666 134 49.8666C134 66 133.467 73.7333 132.4 74.8C131.6 75.6 128.533 76.4 125.733 76.5333L120.667 76.6666L120.267 50.2666L120 24H124.933C127.733 24 130.933 24.6666 132 25.3333Z" fill="#E50914"/>
<path d="M156 50.6667V88H162.667H169.333V72V56H178H186.667V50.6667V45.3333H178H169.333V34.6667V24H180H190.667V18.6667V13.3333H173.333H156V50.6667Z" fill="#E50914"/>
<path d="M197.333 50.6666C197.333 79.4666 197.733 88.2666 199.067 88.5333C199.867 88.9333 207.733 89.4666 216.4 89.8666L232 90.6666V84.8V79.0666L221.333 78.1333L210.667 77.2V45.2V13.3333H204H197.333V50.6666Z" fill="#E50914"/>
<path d="M237.6 52.2666L238 91.3333L245.067 91.7333L252 92.1333V52.8V13.3333H244.667H237.333L237.6 52.2666Z" fill="#E50914"/>
<path d="M259.067 14.9333C259.333 15.8667 262.4 24.5334 265.867 34L272.133 51.4667L264.8 72C260.8 83.3334 257.6 92.8 257.867 92.9334C258 93.2 260.933 93.7334 264.267 94.1334L270.4 94.9334L275.467 79.4667C278.267 70.9334 280.933 64.5334 281.333 65.0667C281.867 65.6 284.267 72.9334 286.667 81.3334C289.067 89.7334 291.467 97.0667 291.867 97.4667C292.267 98 295.467 98.8 299.067 99.2C303.733 100 305.333 99.7334 305.333 98.4C305.333 97.4667 302.267 86.8 298.4 74.8L291.467 52.9334L298.267 33.0667L305.2 13.3334H298.8H292.4L288 25.6C285.733 32.4 283.333 38.8 282.8 39.7334C282.267 40.6667 279.867 35.3334 277.333 27.3334L272.8 13.3334H265.6C260.4 13.3334 258.533 13.7334 259.067 14.9333Z" fill="#E50914"/>
</svg>
