<svg width="539" height="247" viewBox="0 0 539 247" fill="none" xmlns="http://www.w3.org/2000/svg">
<path d="M201.104 8.81818V35H193.996V8.81818H201.104ZM232.155 18.6364H224.945C224.894 18.0398 224.758 17.4986 224.536 17.0128C224.323 16.527 224.025 16.1094 223.641 15.7599C223.266 15.402 222.81 15.1293 222.273 14.9418C221.736 14.7457 221.127 14.6477 220.445 14.6477C219.252 14.6477 218.242 14.9375 217.415 15.517C216.597 16.0966 215.975 16.9276 215.549 18.0099C215.131 19.0923 214.922 20.392 214.922 21.9091C214.922 23.5114 215.136 24.8537 215.562 25.9361C215.996 27.0099 216.623 27.8196 217.441 28.3651C218.259 28.902 219.244 29.1705 220.394 29.1705C221.05 29.1705 221.638 29.0895 222.158 28.9276C222.678 28.7571 223.13 28.5142 223.513 28.1989C223.897 27.8835 224.208 27.5043 224.447 27.0611C224.694 26.6094 224.86 26.1023 224.945 25.5398L232.155 25.5909C232.07 26.6989 231.759 27.8281 231.222 28.9787C230.685 30.1207 229.922 31.1776 228.934 32.1491C227.954 33.1122 226.739 33.8878 225.29 34.4759C223.842 35.0639 222.158 35.358 220.241 35.358C217.837 35.358 215.681 34.8423 213.772 33.8111C211.871 32.7798 210.367 31.2628 209.259 29.2599C208.16 27.2571 207.61 24.8068 207.61 21.9091C207.61 18.9943 208.172 16.5398 209.297 14.5455C210.422 12.5426 211.94 11.0298 213.849 10.0071C215.758 8.97585 217.888 8.46023 220.241 8.46023C221.894 8.46023 223.415 8.68608 224.805 9.13778C226.194 9.58949 227.413 10.25 228.461 11.1193C229.509 11.9801 230.353 13.0412 230.992 14.3026C231.631 15.5639 232.019 17.0085 232.155 18.6364ZM263.984 21.9091C263.984 24.8239 263.417 27.2827 262.284 29.2855C261.15 31.2798 259.62 32.7926 257.694 33.8239C255.768 34.8466 253.62 35.358 251.251 35.358C248.865 35.358 246.708 34.8423 244.782 33.8111C242.865 32.7713 241.339 31.2543 240.205 29.2599C239.08 27.2571 238.518 24.8068 238.518 21.9091C238.518 18.9943 239.08 16.5398 240.205 14.5455C241.339 12.5426 242.865 11.0298 244.782 10.0071C246.708 8.97585 248.865 8.46023 251.251 8.46023C253.62 8.46023 255.768 8.97585 257.694 10.0071C259.62 11.0298 261.15 12.5426 262.284 14.5455C263.417 16.5398 263.984 18.9943 263.984 21.9091ZM256.671 21.9091C256.671 20.3409 256.463 19.0199 256.045 17.946C255.636 16.8636 255.026 16.0455 254.217 15.4915C253.416 14.929 252.427 14.6477 251.251 14.6477C250.075 14.6477 249.082 14.929 248.272 15.4915C247.471 16.0455 246.862 16.8636 246.444 17.946C246.035 19.0199 245.83 20.3409 245.83 21.9091C245.83 23.4773 246.035 24.8026 246.444 25.8849C246.862 26.9588 247.471 27.777 248.272 28.3395C249.082 28.8935 250.075 29.1705 251.251 29.1705C252.427 29.1705 253.416 28.8935 254.217 28.3395C255.026 27.777 255.636 26.9588 256.045 25.8849C256.463 24.8026 256.671 23.4773 256.671 21.9091ZM253.757 6.46591L251.251 3.65341L248.745 6.46591H242.916V6.3125L248.796 0.482953H253.705L259.586 6.3125V6.46591H253.757ZM293.166 8.81818V35H287.234L277.774 21.2443H277.621V35H270.513V8.81818H276.547L285.853 22.5227H286.058V8.81818H293.166ZM299.768 35V8.81818H318.638V14.5455H306.876V19.0455H317.666V24.7727H306.876V29.2727H318.586V35H299.768ZM339.516 17C339.448 16.1477 339.129 15.483 338.558 15.0057C337.995 14.5284 337.139 14.2898 335.988 14.2898C335.255 14.2898 334.654 14.3793 334.185 14.5582C333.725 14.7287 333.384 14.9631 333.163 15.2614C332.941 15.5597 332.826 15.9006 332.818 16.2841C332.8 16.5994 332.856 16.8849 332.984 17.1406C333.12 17.3878 333.333 17.6136 333.623 17.8182C333.913 18.0142 334.283 18.1932 334.735 18.3551C335.187 18.517 335.724 18.6619 336.346 18.7898L338.494 19.25C339.943 19.5568 341.183 19.9616 342.214 20.4645C343.245 20.9673 344.089 21.5597 344.745 22.2415C345.401 22.9148 345.883 23.6733 346.19 24.517C346.505 25.3608 346.667 26.2812 346.675 27.2784C346.667 29 346.237 30.4574 345.384 31.6506C344.532 32.8438 343.313 33.7514 341.728 34.3736C340.151 34.9957 338.255 35.3068 336.039 35.3068C333.764 35.3068 331.778 34.9702 330.082 34.2969C328.394 33.6236 327.082 32.5881 326.144 31.1903C325.215 29.7841 324.746 27.9858 324.738 25.7955H331.488C331.531 26.5966 331.731 27.2699 332.089 27.8153C332.447 28.3608 332.95 28.7741 333.597 29.0554C334.254 29.3366 335.033 29.4773 335.937 29.4773C336.695 29.4773 337.33 29.3835 337.842 29.196C338.353 29.0085 338.741 28.7486 339.005 28.4162C339.269 28.0838 339.406 27.7045 339.414 27.2784C339.406 26.8778 339.273 26.5284 339.018 26.2301C338.771 25.9233 338.362 25.6506 337.791 25.4119C337.22 25.1648 336.448 24.9347 335.477 24.7216L332.869 24.1591C330.55 23.6562 328.722 22.8168 327.384 21.6406C326.055 20.456 325.394 18.8409 325.403 16.7955C325.394 15.1335 325.837 13.6804 326.732 12.4361C327.636 11.1832 328.884 10.2074 330.478 9.50852C332.08 8.80966 333.917 8.46023 335.988 8.46023C338.102 8.46023 339.93 8.81392 341.472 9.52131C343.015 10.2287 344.204 11.2259 345.039 12.5128C345.883 13.7912 346.309 15.2869 346.318 17H339.516Z" fill="white"/>
<path d="M0 66L539 66" stroke="white" stroke-width="2"/>
<g clip-path="url(#clip0_1683_600)">
<path d="M170.935 221.875L172.002 214.998H165.334V210.535C165.334 208.654 166.265 206.82 169.252 206.82H172.283V200.965C172.283 200.965 169.532 200.5 166.902 200.5C161.41 200.5 157.821 203.794 157.821 209.757V214.998H151.717V221.875H157.821V238.5H165.334V221.875H170.935Z" fill="white"/>
</g>
<g clip-path="url(#clip1_1683_600)">
<path d="M227.011 207.146C220.196 207.146 214.7 212.657 214.7 219.489C214.7 226.321 220.196 231.832 227.011 231.832C233.825 231.832 239.321 226.321 239.321 219.489C239.321 212.657 233.825 207.146 227.011 207.146ZM227.011 227.514C222.607 227.514 219.007 223.915 219.007 219.489C219.007 215.063 222.596 211.465 227.011 211.465C231.425 211.465 235.014 215.063 235.014 219.489C235.014 223.915 231.414 227.514 227.011 227.514ZM242.696 206.642C242.696 208.242 241.411 209.521 239.825 209.521C238.229 209.521 236.954 208.231 236.954 206.642C236.954 205.052 238.239 203.763 239.825 203.763C241.411 203.763 242.696 205.052 242.696 206.642ZM250.85 209.563C250.668 205.707 249.789 202.291 246.971 199.477C244.164 196.662 240.757 195.781 236.911 195.588C232.946 195.362 221.064 195.362 217.1 195.588C213.264 195.771 209.857 196.651 207.039 199.466C204.221 202.28 203.354 205.696 203.161 209.553C202.936 213.527 202.936 225.44 203.161 229.415C203.343 233.271 204.221 236.688 207.039 239.502C209.857 242.316 213.254 243.197 217.1 243.391C221.064 243.616 232.946 243.616 236.911 243.391C240.757 243.208 244.164 242.327 246.971 239.502C249.779 236.688 250.657 233.271 250.85 229.415C251.075 225.44 251.075 213.538 250.85 209.563ZM245.729 233.68C244.893 235.785 243.275 237.407 241.164 238.256C238.004 239.513 230.504 239.223 227.011 239.223C223.518 239.223 216.007 239.502 212.857 238.256C210.757 237.418 209.139 235.796 208.293 233.68C207.039 230.511 207.329 222.991 207.329 219.489C207.329 215.987 207.05 208.457 208.293 205.299C209.129 203.193 210.746 201.571 212.857 200.723C216.018 199.466 223.518 199.756 227.011 199.756C230.504 199.756 238.014 199.477 241.164 200.723C243.264 201.561 244.882 203.183 245.729 205.299C246.982 208.468 246.693 215.987 246.693 219.489C246.693 222.991 246.982 230.521 245.729 233.68Z" fill="white"/>
</g>
<path d="M323.066 209.723C323.096 210.15 323.096 210.576 323.096 211.003C323.096 224.008 313.198 238.992 295.107 238.992C289.533 238.992 284.355 237.378 280 234.576C280.792 234.668 281.553 234.698 282.376 234.698C286.975 234.698 291.208 233.145 294.589 230.495C290.264 230.404 286.64 227.571 285.391 223.673C286 223.764 286.609 223.825 287.249 223.825C288.132 223.825 289.015 223.703 289.838 223.49C285.33 222.576 281.949 218.617 281.949 213.835V213.713C283.259 214.444 284.782 214.901 286.396 214.962C283.746 213.195 282.01 210.18 282.01 206.769C282.01 204.942 282.497 203.267 283.35 201.805C288.193 207.774 295.472 211.673 303.634 212.099C303.482 211.368 303.391 210.607 303.391 209.845C303.391 204.424 307.777 200.008 313.228 200.008C316.061 200.008 318.619 201.196 320.416 203.114C322.639 202.688 324.771 201.866 326.66 200.739C325.929 203.023 324.375 204.942 322.335 206.16C324.315 205.947 326.233 205.399 328 204.637C326.66 206.586 324.985 208.322 323.066 209.723Z" fill="white"/>
<path d="M402.805 208.421C402.281 206.435 400.739 204.871 398.781 204.34C395.232 203.375 381 203.375 381 203.375C381 203.375 366.768 203.375 363.219 204.34C361.261 204.871 359.719 206.435 359.195 208.421C358.244 212.021 358.244 219.533 358.244 219.533C358.244 219.533 358.244 227.044 359.195 230.644C359.719 232.63 361.261 234.129 363.219 234.66C366.768 235.625 381 235.625 381 235.625C381 235.625 395.232 235.625 398.781 234.66C400.739 234.129 402.281 232.63 402.805 230.644C403.756 227.044 403.756 219.533 403.756 219.533C403.756 219.533 403.756 212.021 402.805 208.421ZM376.345 226.352V212.713L388.24 219.533L376.345 226.352Z" fill="white"/>
<g clip-path="url(#clip2_1683_600)">
<path d="M24.5 97C22.5641 97 21 98.5361 21 100.438V102.5C13.0157 104.09 7.00004 111.029 7.00004 119.344V121.363C7.00004 126.412 5.10785 131.289 1.69535 135.07L0.88598 135.962C-0.0327699 136.972 -0.25152 138.422 0.306293 139.657C0.864105 140.893 2.12192 141.688 3.50004 141.688H45.5C46.8782 141.688 48.125 140.893 48.6938 139.657C49.2625 138.422 49.0329 136.972 48.1141 135.962L47.3047 135.07C43.8922 131.289 42 126.423 42 121.363V119.344C42 111.029 35.9844 104.09 28 102.5V100.438C28 98.5361 26.436 97 24.5 97ZM29.4547 149.991C30.7672 148.702 31.5 146.951 31.5 145.125H24.5H17.5C17.5 146.951 18.2329 148.702 19.5454 149.991C20.8579 151.28 22.6407 152 24.5 152C26.3594 152 28.1422 151.28 29.4547 149.991Z" fill="white"/>
</g>
<path d="M102.61 137.585C104.484 139.472 107.528 139.472 109.402 137.585L128.594 118.259C129.973 116.87 130.378 114.801 129.628 112.989C128.879 111.178 127.14 110 125.19 110L86.8063 110.015C84.8722 110.015 83.1179 111.193 82.3682 113.005C81.6185 114.816 82.0383 116.885 83.4028 118.274L102.595 137.6L102.61 137.585Z" fill="white"/>
<g clip-path="url(#clip3_1683_600)">
<path d="M210.561 108.649C212.475 106.769 212.475 103.716 210.561 101.836C208.647 99.9562 205.538 99.9562 203.624 101.836L187.5 117.687L171.361 101.851C169.447 99.9713 166.338 99.9713 164.424 101.851C162.51 103.731 162.51 106.784 164.424 108.664L180.564 124.5L164.44 140.351C162.526 142.231 162.526 145.284 164.44 147.164C166.354 149.044 169.462 149.044 171.376 147.164L187.5 131.313L203.64 147.149C205.554 149.029 208.662 149.029 210.576 147.149C212.49 145.269 212.49 142.216 210.576 140.336L194.437 124.5L210.561 108.649Z" fill="white"/>
</g>
<path d="M245 107.357C245 103.575 247.635 100.5 250.875 100.5H286.125C289.365 100.5 292 103.575 292 107.357V141.643C292 145.425 289.365 148.5 286.125 148.5H250.875C247.635 148.5 245 145.425 245 141.643V107.357ZM249.406 136.5V139.929C249.406 140.871 250.067 141.643 250.875 141.643H253.812C254.62 141.643 255.281 140.871 255.281 139.929V136.5C255.281 135.557 254.62 134.786 253.812 134.786H250.875C250.067 134.786 249.406 135.557 249.406 136.5ZM283.188 134.786C282.38 134.786 281.719 135.557 281.719 136.5V139.929C281.719 140.871 282.38 141.643 283.188 141.643H286.125C286.933 141.643 287.594 140.871 287.594 139.929V136.5C287.594 135.557 286.933 134.786 286.125 134.786H283.188ZM249.406 122.786V126.214C249.406 127.157 250.067 127.929 250.875 127.929H253.812C254.62 127.929 255.281 127.157 255.281 126.214V122.786C255.281 121.843 254.62 121.071 253.812 121.071H250.875C250.067 121.071 249.406 121.843 249.406 122.786ZM283.188 121.071C282.38 121.071 281.719 121.843 281.719 122.786V126.214C281.719 127.157 282.38 127.929 283.188 127.929H286.125C286.933 127.929 287.594 127.157 287.594 126.214V122.786C287.594 121.843 286.933 121.071 286.125 121.071H283.188ZM249.406 109.071V112.5C249.406 113.443 250.067 114.214 250.875 114.214H253.812C254.62 114.214 255.281 113.443 255.281 112.5V109.071C255.281 108.129 254.62 107.357 253.812 107.357H250.875C250.067 107.357 249.406 108.129 249.406 109.071ZM283.188 107.357C282.38 107.357 281.719 108.129 281.719 109.071V112.5C281.719 113.443 282.38 114.214 283.188 114.214H286.125C286.933 114.214 287.594 113.443 287.594 112.5V109.071C287.594 108.129 286.933 107.357 286.125 107.357H283.188ZM259.688 110.786V117.643C259.688 119.539 261 121.071 262.625 121.071H274.375C276 121.071 277.312 119.539 277.312 117.643V110.786C277.312 108.889 276 107.357 274.375 107.357H262.625C261 107.357 259.688 108.889 259.688 110.786ZM262.625 127.929C261 127.929 259.688 129.461 259.688 131.357V138.214C259.688 140.111 261 141.643 262.625 141.643H274.375C276 141.643 277.312 140.111 277.312 138.214V131.357C277.312 129.461 276 127.929 274.375 127.929H262.625Z" fill="white"/>
<g clip-path="url(#clip4_1683_600)">
<path d="M364.812 120C364.812 124.303 363.387 128.278 360.984 131.503L373.1 143.381C374.297 144.553 374.297 146.456 373.1 147.628C371.904 148.8 369.961 148.8 368.765 147.628L356.649 135.75C353.357 138.112 349.299 139.5 344.906 139.5C333.91 139.5 325 130.772 325 120C325 109.228 333.91 100.5 344.906 100.5C355.903 100.5 364.812 109.228 364.812 120ZM344.906 133.5C352.515 133.5 358.688 127.453 358.688 120C358.688 112.547 352.515 106.5 344.906 106.5C337.298 106.5 331.125 112.547 331.125 120C331.125 127.453 337.298 133.5 344.906 133.5Z" fill="white"/>
</g>
<path d="M449.825 121.675C451.387 123.237 451.387 125.775 449.825 127.337L425.825 151.337C424.262 152.9 421.725 152.9 420.162 151.337C418.6 149.775 418.6 147.237 420.162 145.675L441.337 124.5L420.175 103.325C418.612 101.762 418.612 99.225 420.175 97.6625C421.737 96.1 424.275 96.1 425.837 97.6625L449.837 121.662L449.825 121.675Z" fill="white"/>
<path d="M530.875 103H522.635L522.539 103.096L510.385 115.286H519.199L519.295 115.19L531.43 103.029C531.248 103.01 531.066 103 530.875 103ZM537 115.286V109.143C537 107.694 536.493 106.35 535.66 105.304L525.707 115.286H537ZM516.146 103H507.322L507.227 103.096L495.072 115.286H503.887L503.982 115.19L516.137 103H516.146ZM494.125 103C490.747 103 488 105.755 488 109.143V115.286H488.584L488.679 115.19L500.834 103H494.125ZM537 118.357H488V139.857C488 143.245 490.747 146 494.125 146H530.875C534.253 146 537 143.245 537 139.857V118.357Z" fill="white"/>
<defs>
<clipPath id="clip0_1683_600">
<rect width="24" height="38" fill="white" transform="translate(150 200.5)"/>
</clipPath>
<clipPath id="clip1_1683_600">
<rect width="48" height="55" fill="white" transform="translate(203 192)"/>
</clipPath>
<clipPath id="clip2_1683_600">
<rect width="49" height="55" fill="white" transform="translate(0 97)"/>
</clipPath>
<clipPath id="clip3_1683_600">
<rect width="49" height="77" fill="white" transform="translate(163 86)"/>
</clipPath>
<clipPath id="clip4_1683_600">
<rect width="49" height="48" fill="white" transform="translate(325 100.5)"/>
</clipPath>
</defs>
</svg>
